<svg width="24" height="24" viewBox="0 0 24 24" fill="none" xmlns="http://www.w3.org/2000/svg">
  <path d="M23.766 12.2764C23.766 11.4607 23.6999 10.6406 23.5588 9.83807H12.24V14.4591H18.7217C18.4528 15.9494 17.5885 17.2678 16.323 18.1056V21.1039H20.19C22.4608 19.0139 23.766 15.9274 23.766 12.2764Z" fill="#4285F4"/>
  <path d="M12.24 24.0008C15.4764 24.0008 18.2058 22.9382 20.1944 21.1039L16.3274 18.1055C15.2516 18.8375 13.8626 19.252 12.24 19.252C9.0526 19.252 6.3526 17.1399 5.3956 14.3003H1.3956V17.3912C3.4116 21.4434 7.5456 24.0008 12.24 24.0008Z" fill="#34A853"/>
  <path d="M5.39558 14.3003C5.17558 13.5703 5.05558 12.7955 5.05558 12.0006C5.05558 11.2057 5.17558 10.4308 5.39558 9.70087V6.61005H1.39558C0.509582 8.23005 0.000582397 10.0702 0.000582397 12.0006C0.000582397 13.9309 0.509582 15.771 1.39558 17.391L5.39558 14.3003Z" fill="#FBBC05"/>
  <path d="M12.24 4.74966C14.0334 4.74966 15.6334 5.36966 16.9234 6.58966L20.3368 3.12627C18.2134 1.18827 15.4834 0.000671387 12.24 0.000671387C7.5456 0.000671387 3.4116 2.55807 1.3956 6.61027L5.3956 9.70109C6.3526 6.86147 9.0526 4.74966 12.24 4.74966Z" fill="#EA4335"/>
</svg> 